# xmcd
#
# Track frame offsets:
#	183
#	14608
#	29295
#	39620
#	58695
#	71920
#	86208
#	99395
#	110695
#	123495
#	135008
#	147108
#
# Disc length: 2111
#
# Revision: 2
# Processed by: cddbd v1.5.1PL0 Copyright (c) Steve Scherf et al.
# Submitted via: EasyCDDAExtractor 6.5.2.1
# Normalized: r1:DSETVAR1
#
DISCID=a8083d0c
DTITLE=Various Artist - Country Sweethearts
DYEAR=1990
DGENRE=
TTITLE0=Kathy Mattea - Heart of the Country
TTITLE1=Lorrie Morgan - Please Mister Please
TTITLE2=Forrester Sisters - Just in Case
TTITLE3=Tanya Tucker - Delta Dawn
TTITLE4=Patti Loveless - It's What You Don't Do
TTITLE5=Sweethearts of the Rodeo - Chains of Gold
TTITLE6=Lynn Anderson - Cry
TTITLE7=Tammy Wynette - Stand By Your Man
TTITLE8=Dottie West - What Are We Doin' In Love
TTITLE9=Jeannie C. Riley - Total Woman
TTITLE10=Gail Davies - It's a Lovely Lovely World
TTITLE11=Helen Cornelius - Fools
EXTD=
EXTT0=
EXTT1=
EXTT2=
EXTT3=
EXTT4=
EXTT5=
EXTT6=
EXTT7=
EXTT8=
EXTT9=
EXTT10=
EXTT11=
PLAYORDER=
